<svg xmlns="http://www.w3.org/2000/svg" viewBox="0 0 800 400" width="800" height="400">
  <!-- Dark background -->
  <rect width="800" height="400" fill="#0f1117"/>

  <!-- Navbar -->
  <rect width="800" height="46" fill="#1a1c2e"/>
  <circle cx="22" cy="23" r="10" fill="#4f8ef7"/>
  <text x="22" y="28" text-anchor="middle" font-family="Arial,sans-serif" font-size="10" font-weight="bold" fill="white">AT</text>
  <text x="44" y="30" font-family="Arial,sans-serif" font-size="14" font-weight="bold" fill="white">AppTrackr</text>
  <rect x="130" y="14" width="70" height="18" rx="4" fill="rgba(79,142,247,0.2)"/>
  <text x="165" y="27" text-anchor="middle" font-family="Arial,sans-serif" font-size="11" fill="#4f8ef7">Dashboard</text>
  <text x="218" y="27" font-family="Arial,sans-serif" font-size="11" fill="#6b7280">Applications</text>
  <text x="292" y="27" font-family="Arial,sans-serif" font-size="11" fill="#6b7280">Analytics</text>
  <text x="356" y="27" font-family="Arial,sans-serif" font-size="11" fill="#6b7280">Reminders</text>
  <circle cx="770" cy="23" r="15" fill="#2d3148"/>
  <text x="770" y="28" text-anchor="middle" font-family="Arial,sans-serif" font-size="11" font-weight="bold" fill="#4f8ef7">RR</text>

  <!-- Page header -->
  <text x="22" y="74" font-family="Arial,sans-serif" font-size="17" font-weight="bold" fill="white">Job Application Tracker</text>
  <text x="22" y="90" font-family="Arial,sans-serif" font-size="10" fill="#6b7280">Last updated: 25 May 2026</text>
  <rect x="668" y="60" width="110" height="26" rx="6" fill="#4f8ef7"/>
  <text x="723" y="78" text-anchor="middle" font-family="Arial,sans-serif" font-size="11" font-weight="600" fill="white">+ Add Job</text>

  <!-- Stat cards -->
  <rect x="22" y="100" width="168" height="70" rx="7" fill="#1a1c2e"/>
  <text x="38" y="122" font-family="Arial,sans-serif" font-size="10" fill="#6b7280">Total Applications</text>
  <text x="38" y="155" font-family="Arial,sans-serif" font-size="30" font-weight="bold" fill="white">48</text>

  <rect x="202" y="100" width="168" height="70" rx="7" fill="#1a1c2e"/>
  <rect x="202" y="100" width="4" height="70" rx="4" fill="#4f8ef7"/>
  <text x="218" y="122" font-family="Arial,sans-serif" font-size="10" fill="#6b7280">In Interview</text>
  <text x="218" y="155" font-family="Arial,sans-serif" font-size="30" font-weight="bold" fill="#4f8ef7">12</text>

  <rect x="382" y="100" width="168" height="70" rx="7" fill="#1a1c2e"/>
  <rect x="382" y="100" width="4" height="70" rx="4" fill="#22c55e"/>
  <text x="398" y="122" font-family="Arial,sans-serif" font-size="10" fill="#6b7280">Offers Received</text>
  <text x="398" y="155" font-family="Arial,sans-serif" font-size="30" font-weight="bold" fill="#22c55e">3</text>

  <rect x="562" y="100" width="168" height="70" rx="7" fill="#1a1c2e"/>
  <rect x="562" y="100" width="4" height="70" rx="4" fill="#ef4444"/>
  <text x="578" y="122" font-family="Arial,sans-serif" font-size="10" fill="#6b7280">Rejected</text>
  <text x="578" y="155" font-family="Arial,sans-serif" font-size="30" font-weight="bold" fill="#ef4444">18</text>

  <!-- Table container -->
  <rect x="22" y="182" width="756" height="204" rx="7" fill="#1a1c2e"/>
  <!-- Table header row -->
  <rect x="22" y="182" width="756" height="32" rx="7" fill="#252840"/>
  <text x="40" y="203" font-family="Arial,sans-serif" font-size="10" font-weight="bold" fill="#6b7280">COMPANY</text>
  <text x="228" y="203" font-family="Arial,sans-serif" font-size="10" font-weight="bold" fill="#6b7280">POSITION</text>
  <text x="456" y="203" font-family="Arial,sans-serif" font-size="10" font-weight="bold" fill="#6b7280">STATUS</text>
  <text x="574" y="203" font-family="Arial,sans-serif" font-size="10" font-weight="bold" fill="#6b7280">APPLIED</text>
  <text x="690" y="203" font-family="Arial,sans-serif" font-size="10" font-weight="bold" fill="#6b7280">NEXT STEP</text>

  <!-- Row 1 – Offer -->
  <text x="40" y="230" font-family="Arial,sans-serif" font-size="12" fill="white">Mercedes-Benz MBition</text>
  <text x="228" y="230" font-family="Arial,sans-serif" font-size="12" fill="#cbd5e1">Automation Engineer</text>
  <rect x="456" y="220" width="52" height="16" rx="8" fill="rgba(34,197,94,0.2)"/>
  <text x="482" y="232" text-anchor="middle" font-family="Arial,sans-serif" font-size="10" font-weight="600" fill="#22c55e">Offer</text>
  <text x="574" y="230" font-family="Arial,sans-serif" font-size="11" fill="#6b7280">15 Jan 2026</text>
  <text x="690" y="230" font-family="Arial,sans-serif" font-size="11" fill="#22c55e">Sign Contract</text>
  <line x1="22" y1="241" x2="778" y2="241" stroke="#2d3148" stroke-width="1"/>

  <!-- Row 2 – Interview -->
  <text x="40" y="261" font-family="Arial,sans-serif" font-size="12" fill="white">SAP SE</text>
  <text x="228" y="261" font-family="Arial,sans-serif" font-size="12" fill="#cbd5e1">Software Developer</text>
  <rect x="456" y="251" width="64" height="16" rx="8" fill="rgba(79,142,247,0.2)"/>
  <text x="488" y="263" text-anchor="middle" font-family="Arial,sans-serif" font-size="10" font-weight="600" fill="#4f8ef7">Interview</text>
  <text x="574" y="261" font-family="Arial,sans-serif" font-size="11" fill="#6b7280">02 Feb 2026</text>
  <text x="690" y="261" font-family="Arial,sans-serif" font-size="11" fill="#4f8ef7">Tech Round 2</text>
  <line x1="22" y1="272" x2="778" y2="272" stroke="#2d3148" stroke-width="1"/>

  <!-- Row 3 – Applied -->
  <text x="40" y="292" font-family="Arial,sans-serif" font-size="12" fill="white">Siemens AG</text>
  <text x="228" y="292" font-family="Arial,sans-serif" font-size="12" fill="#cbd5e1">Backend Engineer (C#)</text>
  <rect x="456" y="282" width="54" height="16" rx="8" fill="rgba(251,146,60,0.2)"/>
  <text x="483" y="294" text-anchor="middle" font-family="Arial,sans-serif" font-size="10" font-weight="600" fill="#fb923c">Applied</text>
  <text x="574" y="292" font-family="Arial,sans-serif" font-size="11" fill="#6b7280">10 Mar 2026</text>
  <text x="690" y="292" font-family="Arial,sans-serif" font-size="11" fill="#6b7280">Awaiting HR</text>
  <line x1="22" y1="303" x2="778" y2="303" stroke="#2d3148" stroke-width="1"/>

  <!-- Row 4 – Rejected -->
  <text x="40" y="323" font-family="Arial,sans-serif" font-size="12" fill="white">Deutsche Bank</text>
  <text x="228" y="323" font-family="Arial,sans-serif" font-size="12" fill="#cbd5e1">Full-Stack Developer</text>
  <rect x="456" y="313" width="60" height="16" rx="8" fill="rgba(239,68,68,0.2)"/>
  <text x="486" y="325" text-anchor="middle" font-family="Arial,sans-serif" font-size="10" font-weight="600" fill="#ef4444">Rejected</text>
  <text x="574" y="323" font-family="Arial,sans-serif" font-size="11" fill="#6b7280">20 Feb 2026</text>
  <text x="690" y="323" font-family="Arial,sans-serif" font-size="11" fill="#6b7280">—</text>
  <line x1="22" y1="334" x2="778" y2="334" stroke="#2d3148" stroke-width="1"/>

  <!-- Row 5 – Interview -->
  <text x="40" y="354" font-family="Arial,sans-serif" font-size="12" fill="white">Bosch GmbH</text>
  <text x="228" y="354" font-family="Arial,sans-serif" font-size="12" fill="#cbd5e1">C# ASP.NET Developer</text>
  <rect x="456" y="344" width="64" height="16" rx="8" fill="rgba(79,142,247,0.2)"/>
  <text x="488" y="356" text-anchor="middle" font-family="Arial,sans-serif" font-size="10" font-weight="600" fill="#4f8ef7">Interview</text>
  <text x="574" y="354" font-family="Arial,sans-serif" font-size="11" fill="#6b7280">05 Mar 2026</text>
  <text x="690" y="354" font-family="Arial,sans-serif" font-size="11" fill="#4f8ef7">HR Scheduled</text>
  <line x1="22" y1="365" x2="778" y2="365" stroke="#2d3148" stroke-width="1"/>

  <!-- Row 6 -->
  <text x="40" y="385" font-family="Arial,sans-serif" font-size="12" fill="white">Allianz SE</text>
  <text x="228" y="385" font-family="Arial,sans-serif" font-size="12" fill="#cbd5e1">.NET Engineer</text>
  <rect x="456" y="375" width="54" height="16" rx="8" fill="rgba(251,146,60,0.2)"/>
  <text x="483" y="387" text-anchor="middle" font-family="Arial,sans-serif" font-size="10" font-weight="600" fill="#fb923c">Applied</text>
  <text x="574" y="385" font-family="Arial,sans-serif" font-size="11" fill="#6b7280">18 Apr 2026</text>
  <text x="690" y="385" font-family="Arial,sans-serif" font-size="11" fill="#6b7280">Awaiting</text>
</svg>
